<svg xmlns="http://www.w3.org/2000/svg" viewBox="0 0 256 256" role="img" aria-label="Termux App Store icon">
  <defs>
    <linearGradient id="bg" x1="24" y1="24" x2="232" y2="232" gradientUnits="userSpaceOnUse">
      <stop offset="0" stop-color="#0f172a"/>
      <stop offset="0.5" stop-color="#155e75"/>
      <stop offset="1" stop-color="#0891b2"/>
    </linearGradient>
    <linearGradient id="bag" x1="64" y1="84" x2="192" y2="196" gradientUnits="userSpaceOnUse">
      <stop offset="0" stop-color="#f8fafc"/>
      <stop offset="1" stop-color="#dbeafe"/>
    </linearGradient>
    <linearGradient id="termux" x1="90" y1="104" x2="166" y2="156" gradientUnits="userSpaceOnUse">
      <stop offset="0" stop-color="#38bdf8"/>
      <stop offset="1" stop-color="#22c55e"/>
    </linearGradient>
  </defs>
  <rect x="16" y="16" width="224" height="224" rx="56" fill="url(#bg)"/>
  <circle cx="198" cy="62" r="18" fill="#f59e0b"/>
  <path d="M92 90c0-20 16-36 36-36s36 16 36 36" fill="none" stroke="#67e8f9" stroke-linecap="round" stroke-width="12"/>
  <path d="M68 88h120c10 0 18 8 18 18v68c0 16-12 28-28 28H78c-16 0-28-12-28-28v-68c0-10 8-18 18-18Z" fill="url(#bag)"/>
  <rect x="74" y="106" width="108" height="70" rx="18" fill="#0f172a" opacity="0.96"/>
  <path d="M96 126l18 14-18 14" fill="none" stroke="url(#termux)" stroke-linecap="round" stroke-linejoin="round" stroke-width="10"/>
  <path d="M126 154h34" fill="none" stroke="#e2e8f0" stroke-linecap="round" stroke-width="10"/>
  <path d="M86 190h84" fill="none" opacity="0.22" stroke="#0f172a" stroke-linecap="round" stroke-width="8"/>
</svg>
